<?xml version="1.0" standalone="no"?><!-- Generator: Gravit.io -->
<svg xmlns="http://www.w3.org/2000/svg" xmlns:xlink="http://www.w3.org/1999/xlink" style="fill:#82878c; isolation:isolate" viewBox="0 0 500 500" width="500" height="500">
    <path d=" M 95 25 L 465 25 C 470.519 25 475 29.481 475 35 L 475 405 C 475 443.634 443.634 475 405 475 L 35 475 C 29.481 475 25 470.519 25 465 L 25 95 C 25 56.366 56.366 25 95 25 Z  M 110.274 406.794 C 100.668 406.794 92.846 398.972 92.846 389.365 C 92.846 379.759 100.668 371.937 110.274 371.937 C 119.881 371.937 127.703 379.759 127.703 389.365 C 127.703 398.972 119.95 406.794 110.274 406.794 L 110.274 406.794 Z  M 342.134 272.304 C 339.389 269.559 334.998 269.559 332.253 272.304 L 319.627 284.929 C 316.883 287.674 312.491 287.674 309.746 284.929 L 286.965 262.148 L 302.198 246.984 C 304.051 245.131 306.796 244.582 309.335 245.405 C 324.019 250.346 340.487 251.581 357.573 247.67 C 384.54 241.426 406.978 221.595 417.545 196.001 C 425.367 176.993 425.848 158.947 421.868 142.684 C 420.564 137.332 413.908 135.48 409.997 139.322 L 363.062 186.12 C 350.78 198.402 330.949 201.421 316.883 191.266 C 298.905 178.366 297.395 153.114 312.423 138.156 L 360.661 89.986 C 364.572 86.075 362.651 79.487 357.299 78.184 C 340.899 74.135 322.784 74.616 303.777 82.507 C 278.251 93.074 258.42 115.512 252.245 142.41 C 248.333 159.427 249.569 175.827 254.509 190.511 C 255.332 193.05 254.784 195.726 252.931 197.647 L 237.629 212.812 L 151.72 126.971 C 150.416 125.667 149.661 123.883 149.661 122.031 L 149.661 104.602 C 149.661 101.925 148.151 99.524 145.818 98.357 L 104.854 77.909 C 102.178 76.537 98.953 77.086 96.825 79.213 L 79.259 96.711 C 77.132 98.838 76.583 102.063 77.955 104.739 L 98.404 145.704 C 99.57 148.037 102.04 149.546 104.648 149.546 L 122.077 149.546 C 123.929 149.546 125.713 150.301 127.017 151.605 L 212.927 237.446 L 86.944 363.428 C 74.662 375.711 71.643 395.472 81.798 409.539 C 94.767 427.517 119.95 428.958 134.908 413.999 L 262.332 286.782 L 285.113 309.563 C 287.857 312.308 287.857 316.699 285.113 319.444 L 272.35 332.207 C 269.605 334.952 269.605 339.343 272.35 342.088 L 340.075 409.882 C 361.621 431.36 398.058 428.889 416.035 402.334 C 429.416 382.641 425.367 355.811 408.556 338.931 L 342.134 272.304 L 342.134 272.304 Z "/>
</svg>
